<?xml version="1.0" encoding="UTF-8" standalone="no"?>
<svg width="20px" height="20px" viewBox="0 0 20 20" version="1.1" xmlns="http://www.w3.org/2000/svg" xmlns:xlink="http://www.w3.org/1999/xlink" xmlns:sketch="http://www.bohemiancoding.com/sketch/ns">
    <!-- Generator: Sketch 3.2.2 (9983) - http://www.bohemiancoding.com/sketch -->
    <title>icons splitscreen</title>
    <desc>Created with Sketch.</desc>
    <defs>
        <path id="path-1" d="M0.00245689655,0.016293279 L19,0.016293279 L19,19.9755601 L0.00245689655,19.9755601 L0.00245689655,0.016293279 Z"></path>
    </defs>
    <g id="Page-1" stroke="none" stroke-width="1" fill="none" fill-rule="evenodd" sketch:type="MSPage">
        <g id="icons-splitscreen" sketch:type="MSArtboardGroup">
            <g id="waves7" sketch:type="MSLayerGroup">
                <mask id="mask-2" sketch:name="Clip 2" fill="white">
                    <use xlink:href="#path-1"></use>
                </mask>
                <g id="Clip-2"></g>
                <path d="M0.883909483,10.952057 L15.2060603,10.952057 C17.2824246,10.952057 18.9717047,9.27164969 18.9717047,7.20619145 C18.9717047,5.14374745 17.2873793,3.46525458 15.2149871,3.46032587 C15.0109009,3.45731161 13.6852004,3.47560081 12.6953987,4.43551935 C12.0322414,5.07881874 11.6961789,5.96256619 11.6961789,7.06219959 C11.6961789,7.54782077 12.0917392,7.94130346 12.5799246,7.94130346 C13.0681099,7.94130346 13.4636703,7.54782077 13.4636703,7.06219959 C13.4636703,6.45995927 13.6175539,6.00264766 13.9208168,5.70305499 C14.3934828,5.23604888 15.1287909,5.21934827 15.1876336,5.21869654 C15.1958233,5.21885947 15.1948405,5.21885947 15.2058966,5.21885947 C16.3076509,5.21885947 17.2040496,6.11038697 17.2040496,7.20619145 C17.2040496,8.30215886 16.3078147,9.19368635 15.2058966,9.19368635 L0.883909483,9.19368635 C0.395724138,9.19368635 0,9.58733198 0,10.0729532 C0,10.5584114 0.395724138,10.952057 0.883909483,10.952057 L0.883909483,10.952057 Z" id="Fill-1" fill="#FFFFFF" sketch:type="MSShapeGroup" mask="url(#mask-2)"></path>
                <path d="M0.883909483,7.50818737 L7.7104375,7.50818737 C9.78680172,7.50818737 11.4760819,5.82778004 11.4760819,3.76232179 C11.4760819,1.69971487 9.79175647,0.0212219959 7.71940517,0.0164562118 C7.51290302,0.013604888 6.18941379,0.0318940937 5.19977586,0.991690428 C4.53678233,1.63498982 4.20039224,2.51869654 4.20039224,3.61832994 C4.20039224,4.10395112 4.59611638,4.49759674 5.08430172,4.49759674 C5.57248707,4.49759674 5.96804741,4.10395112 5.96804741,3.61832994 C5.96804741,3.01608961 6.12193103,2.558778 6.42519397,2.25918534 C6.89785991,1.79234216 7.6331681,1.77531568 7.69205172,1.77482688 C7.70036422,1.77498982 7.69921767,1.77482688 7.7104375,1.77482688 C8.81202802,1.77482688 9.70842672,2.66651731 9.70842672,3.76232179 C9.70842672,4.85828921 8.81219181,5.7498167 7.7104375,5.7498167 L0.883909483,5.7498167 C0.395724138,5.7498167 0,6.14346232 0,6.6290835 C0,7.11470468 0.395724138,7.50818737 0.883909483,7.50818737 L0.883909483,7.50818737 Z" id="Fill-3" fill="#FFFFFF" sketch:type="MSShapeGroup" mask="url(#mask-2)"></path>
                <path d="M15.2060603,12.4674542 L0.883909483,12.4674542 C0.395724138,12.4674542 0,12.8610998 0,13.346558 C0,13.8320163 0.395724138,14.2258248 0.883909483,14.2258248 L15.2060603,14.2258248 C16.3076509,14.2258248 17.2040496,15.1173523 17.2040496,16.2131568 C17.2040496,17.3091242 16.3078147,18.2006517 15.2060603,18.2006517 C15.1948405,18.2006517 15.1959871,18.2004888 15.1876336,18.2008147 C15.1287909,18.2001629 14.3934828,18.1832994 13.9208168,17.7164562 C13.6175539,17.4168635 13.4636703,16.9595519 13.4636703,16.3571487 C13.4636703,15.8716904 13.0681099,15.4778819 12.5799246,15.4778819 C12.091903,15.4778819 11.6961789,15.8715275 11.6961789,16.3571487 C11.6961789,17.456945 12.0322414,18.3406925 12.6953987,18.9838289 C13.6453578,19.9052546 14.9035754,19.9593483 15.184931,19.9593483 C15.1967651,19.9593483 15.2068384,19.9591853 15.2149871,19.9590224 C17.2873793,19.9542566 18.9717047,18.2757637 18.9717047,16.2133198 C18.9717047,14.1476986 17.2824246,12.4674542 15.2060603,12.4674542 L15.2060603,12.4674542 Z" id="Fill-4" fill="#FFFFFF" sketch:type="MSShapeGroup" mask="url(#mask-2)"></path>
            </g>
        </g>
    </g>
</svg>