<?xml version="1.0" encoding="UTF-8" standalone="no"?>
<svg width="20px" height="12px" viewBox="0 0 20 12" version="1.1" xmlns="http://www.w3.org/2000/svg" xmlns:xlink="http://www.w3.org/1999/xlink" xmlns:sketch="http://www.bohemiancoding.com/sketch/ns">
    <!-- Generator: Sketch 3.2.2 (9983) - http://www.bohemiancoding.com/sketch -->
    <title>Artboard 5</title>
    <desc>Created with Sketch.</desc>
    <defs>
        <path id="path-1" d="M0,0.02 L18,0.02 L18,11.02 L0,11.02 L0,0.02 Z"></path>
    </defs>
    <g id="Page-1" stroke="none" stroke-width="1" fill="none" fill-rule="evenodd" sketch:type="MSPage">
        <g id="Artboard-5" sketch:type="MSArtboardGroup">
            <g id="direction51" sketch:type="MSLayerGroup" transform="translate(1.000000, 0.000000)">
                <mask id="mask-2" sketch:name="Clip 2" fill="white">
                    <use xlink:href="#path-1"></use>
                </mask>
                <g id="Clip-2"></g>
                <path d="M17.164,1.094 L16.574,0.505 C15.926,-0.14 14.867,-0.14 14.219,0.505 L8.824,5.899 L3.43,0.505 C2.785,-0.14 1.723,-0.14 1.078,0.505 L0.488,1.094 C-0.164,1.743 -0.164,2.805 0.488,3.45 L7.555,10.52 C7.902,10.868 8.367,11.024 8.824,10.997 C9.281,11.024 9.746,10.868 10.094,10.52 L17.164,3.45 C17.812,2.805 17.812,1.743 17.164,1.094 L17.164,1.094 Z" id="Fill-1" fill="#FFFFFF" sketch:type="MSShapeGroup" mask="url(#mask-2)"></path>
            </g>
        </g>
    </g>
</svg>