<?xml version="1.0" encoding="UTF-8" standalone="no"?>
<svg width="20px" height="20px" viewBox="0 0 20 20" version="1.1" xmlns="http://www.w3.org/2000/svg" xmlns:xlink="http://www.w3.org/1999/xlink" xmlns:sketch="http://www.bohemiancoding.com/sketch/ns">
    <!-- Generator: Sketch 3.2.2 (9983) - http://www.bohemiancoding.com/sketch -->
    <title>icons splitscreen</title>
    <desc>Created with Sketch.</desc>
    <defs>
        <path id="path-1" d="M0.0252631579,0.0729166667 L16,0.0729166667 L16,19.65625 L0.0252631579,19.65625 L0.0252631579,0.0729166667 Z"></path>
    </defs>
    <g id="Page-1" stroke="none" stroke-width="1" fill="none" fill-rule="evenodd" sketch:type="MSPage">
        <g id="icons-splitscreen" sketch:type="MSArtboardGroup">
            <g id="hair73" sketch:type="MSLayerGroup" transform="translate(2.000000, 0.000000)">
                <mask id="mask-2" sketch:name="Clip 2" fill="white">
                    <use xlink:href="#path-1"></use>
                </mask>
                <g id="Clip-2"></g>
                <path d="M15.7368421,7.75708333 C15.4193684,4.65291667 13.3536842,0.972916667 9.56421053,0.2275 C9.04421053,0.125 8.50652632,0.0729166667 7.96715789,0.0729166667 C5.24673684,0.0729166667 2.64631579,1.36375 1.17936842,3.44041667 C1.14315789,3.4925 1.10694737,3.54458333 1.07073684,3.59833333 C-0.555789474,6.04 -0.302736842,9.43166667 1.65136842,11.32125 C1.79621053,11.4629167 1.95073684,11.59625 2.10526316,11.73 C2.472,12.0470833 2.81894737,12.3466667 3.04421053,12.7391667 C3.41431579,13.3804167 3.41768421,14.2720833 3.05431579,15.125 C2.71705263,15.9145833 2.14147368,16.585 1.58231579,17.2345833 C1.53936842,17.285 1.52968421,17.3566667 1.56084211,17.4166667 C1.59031579,17.4770833 1.65642105,17.5129167 1.72210526,17.5079167 C2.99831579,17.4283333 4.22189474,16.7429167 5.07578947,15.6279167 C5.93094737,14.5116667 6.26821053,13.1620833 6,11.92375 C5.98694737,11.86 5.936,11.8095833 5.86989474,11.795 C5.80757895,11.7820833 5.73852632,11.80625 5.69894737,11.86 C5.51957895,12.1025 5.25178947,12.1529167 5.05936842,12.1529167 C4.74989474,12.1529167 4.41263158,12.02125 4.19578947,11.81625 C3.12842105,10.8020833 3.05431579,9.21208333 3.10357895,8.3525 C3.16463158,7.31416667 3.52294737,6.52 3.90315789,5.67833333 C3.91452632,5.6525 3.92589474,5.62791667 3.93894737,5.60208333 C4.11494737,6.45 4.82736842,7.23625 5.53936842,7.74375 C5.72210526,7.87416667 5.91284211,8.00125 6.10357895,8.12958333 C6.90778947,8.66666667 7.74021053,9.22333333 8.07410526,10.08125 C8.57052632,11.3570833 7.80926316,12.7554167 6.91284211,14.0783333 C6.87831579,14.1291667 6.88,14.1958333 6.90947368,14.2495833 C6.93894737,14.3045833 7,14.3375 7.06231579,14.3375 C7.47536842,14.3375 7.888,14.1858333 8.20715789,13.9254167 C8.18105263,15.4066667 6.61178947,16.5783333 5.38989474,17.3516667 L2.48336842,19.1858333 C2.42442105,19.225 2.39494737,19.295 2.40968421,19.3633333 C2.42442105,19.4316667 2.48042105,19.4820833 2.55115789,19.4920833 C2.98526316,19.5520833 3.42947368,19.5829167 3.87326316,19.5829167 C7.08884211,19.5829167 10.5149474,17.9783333 13.2745263,15.1770833 C15.0741053,13.3508333 16.0164211,10.5075 15.7368421,7.75708333 L15.7368421,7.75708333 Z" id="Fill-1" fill="#FFFFFF" sketch:type="MSShapeGroup" mask="url(#mask-2)"></path>
            </g>
        </g>
    </g>
</svg>