<?xml version="1.0" encoding="UTF-8" standalone="no"?>
<svg width="30px" height="30px" viewBox="0 0 30 30" version="1.1" xmlns="http://www.w3.org/2000/svg" xmlns:xlink="http://www.w3.org/1999/xlink" xmlns:sketch="http://www.bohemiancoding.com/sketch/ns">
    <!-- Generator: Sketch 3.2.2 (9983) - http://www.bohemiancoding.com/sketch -->
    <title>Header top icons</title>
    <desc>Created with Sketch.</desc>
    <defs></defs>
    <g id="Page-1" stroke="none" stroke-width="1" fill="none" fill-rule="evenodd" sketch:type="MSPage">
        <g id="Header-top-icons" sketch:type="MSArtboardGroup" fill="#FFFFFF">
            <g id="shopping185" sketch:type="MSLayerGroup" transform="translate(0.000000, 1.000000)">
                <path d="M13.3308,24.1798261 C13.3308,25.6163478 12.1824,26.7813913 10.7628,26.7813913 C9.3468,26.7813913 8.1984,25.6163478 8.1984,24.1798261 C8.1984,22.7433043 9.3468,21.5733913 10.7628,21.5733913 C12.1824,21.5733913 13.3308,22.7433043 13.3308,24.1798261 L13.3308,24.1798261 Z" id="Fill-1" sketch:type="MSShapeGroup"></path>
                <path d="M25.434,24.1798261 C25.434,25.6163478 24.2856,26.7813913 22.8708,26.7813913 C21.45,26.7813913 20.3016,25.6163478 20.3016,24.1798261 C20.3016,22.7433043 21.45,21.5733913 22.8708,21.5733913 C24.2856,21.5733913 25.434,22.7433043 25.434,24.1798261 L25.434,24.1798261 Z" id="Fill-2" sketch:type="MSShapeGroup"></path>
                <path d="M29.4708,7.02191304 C29.316,6.81252174 29.0724,6.68956522 28.8144,6.68956522 L8.3952,6.68956522 C8.0856,6.68956522 7.8,6.50817391 7.6644,6.22330435 L5.1372,0.934956522 C4.926,0.493043478 4.4856,0.211826087 4.0032,0.211826087 L0.6468,0.211826087 C0.2904,0.211826087 0,0.507652174 0,0.868 L0,1.70069565 C0,2.06226087 0.2904,2.35686957 0.6468,2.35686957 L3.0516,2.35686957 C3.216,2.35686957 3.3612,2.47130435 3.4032,2.63321739 L7.4292,18.1403478 C7.8144,19.6292174 9.1404,20.6652174 10.6548,20.6652174 L23.1744,20.6652174 C24.6324,20.6652174 25.9224,19.6998261 26.358,18.2876522 L29.592,7.75965217 C29.6676,7.50765217 29.6256,7.23617391 29.4708,7.02191304 L29.4708,7.02191304 Z M24.066,17.5645217 C23.9436,17.9601739 23.5872,18.2304348 23.1744,18.2304348 L10.6548,18.2304348 C10.2324,18.2304348 9.8628,17.9406957 9.7548,17.521913 L7.7676,9.8706087 C7.7208,9.69043478 7.758,9.49930435 7.8708,9.352 C7.9776,9.20956522 8.1516,9.12434783 8.334,9.12434783 L25.8612,9.12434783 C26.0484,9.12434783 26.226,9.20956522 26.334,9.3666087 C26.4468,9.51391304 26.4744,9.71356522 26.424,9.89495652 L24.066,17.5645217 Z" id="Fill-3" sketch:type="MSShapeGroup"></path>
            </g>
        </g>
    </g>
</svg>