<?xml version="1.0" encoding="UTF-8" standalone="no"?>
<svg width="20px" height="20px" viewBox="0 0 20 20" version="1.1" xmlns="http://www.w3.org/2000/svg" xmlns:xlink="http://www.w3.org/1999/xlink" xmlns:sketch="http://www.bohemiancoding.com/sketch/ns">
    <!-- Generator: Sketch 3.2.2 (9983) - http://www.bohemiancoding.com/sketch -->
    <title>icons splitscreen</title>
    <desc>Created with Sketch.</desc>
    <defs>
        <path id="path-1" d="M0.0157894737,0.0933913043 L20,0.0933913043 L20,11.8325217 L0.0157894737,11.8325217 L0.0157894737,0.0933913043 Z"></path>
    </defs>
    <g id="Page-1" stroke="none" stroke-width="1" fill="none" fill-rule="evenodd" sketch:type="MSPage">
        <g id="icons-splitscreen" sketch:type="MSArtboardGroup">
            <g id="bow4" sketch:type="MSLayerGroup" transform="translate(0.000000, 4.000000)">
                <mask id="mask-2" sketch:name="Clip 2" fill="white">
                    <use xlink:href="#path-1"></use>
                </mask>
                <g id="Clip-2"></g>
                <path d="M10.0339474,6.60286957 L9.69868421,6.60286957 C8.90526316,6.60286957 8.26263158,7.24095652 8.26263158,8.02643478 L8.26263158,9.54495652 C8.26263158,10.3304348 8.90631579,10.9674783 9.69868421,10.9674783 L10.0339474,10.9674783 C10.8265789,10.9674783 11.4689474,10.3304348 11.4689474,9.54495652 L11.4689474,8.02643478 C11.4689474,7.24095652 10.8265789,6.60286957 10.0339474,6.60286957 L10.0339474,6.60286957 Z" id="Fill-1" fill="#FFFFFF" sketch:type="MSShapeGroup" mask="url(#mask-2)"></path>
                <path d="M19.9073684,4.74130435 C19.8839474,4.48747826 19.8139474,4.23886957 19.7194737,3.99730435 C19.6165789,3.76095652 19.4892105,3.53269565 19.335,3.32373913 C19.2989474,3.26765217 19.2557895,3.22069565 19.2157895,3.16982609 C19.1734211,3.12 19.1355263,3.066 19.0892105,3.02008696 C19.0007895,2.9253913 18.9134211,2.82756522 18.8168421,2.73991304 C18.7684211,2.69608696 18.7223684,2.64913043 18.6728947,2.60634783 C18.6226316,2.5646087 18.5721053,2.52182609 18.5218421,2.48008696 L18.4468421,2.41565217 L18.3686842,2.35669565 C18.3163158,2.31704348 18.2636842,2.27817391 18.2113158,2.23852174 C17.7857895,1.92652174 17.3171053,1.66878261 16.8297368,1.43947826 C16.3434211,1.21017391 15.8315789,1.01973913 15.3084211,0.855652174 C14.7842105,0.690521739 14.2444737,0.556173913 13.6976316,0.447913043 C12.6018421,0.226956522 11.475,0.121826087 10.3402632,0.0965217391 C9.21657895,0.0772173913 8.08078947,0.148434783 6.98078947,0.316695652 C6.43,0.399130435 5.88605263,0.511304348 5.35578947,0.64773913 C4.82526316,0.783391304 4.30710526,0.944347826 3.80763158,1.13895652 C3.30894737,1.33147826 2.82684211,1.55165217 2.37552632,1.81252174 C1.92526316,2.07130435 1.50078947,2.36582609 1.13184211,2.71434783 C1.08657895,2.75817391 1.04026316,2.802 0.995,2.84478261 C0.951842105,2.89173913 0.908684211,2.9373913 0.865526316,2.98434783 C0.778157895,3.07304348 0.702105263,3.17608696 0.623947368,3.27182609 C0.476052632,3.47347826 0.337105263,3.68243478 0.238421053,3.91069565 C0.182894737,4.02078261 0.147894737,4.14104348 0.106842105,4.25504348 C0.0905263158,4.31530435 0.0760526316,4.37426087 0.0615789474,4.43347826 C0.0544736842,4.464 0.0473684211,4.49243478 0.0410526316,4.52321739 L0.0276315789,4.61791304 C0.0194736842,4.68104348 0.00921052632,4.74730435 0.00526315789,4.80547826 C0.00421052632,4.8573913 0.00315789474,4.91034783 0.00210526316,4.96330435 L0.00105263158,5.00217391 L-2.30479698e-15,5.02252174 C-0.00105263158,5.05513043 0.00105263158,5.03765217 0.00105263158,5.04782609 L0.00105263158,5.05904348 L0.00605263158,5.14669565 C0.00921052632,5.20486957 0.0194736842,5.26304348 0.0268421053,5.31991304 C0.0955263158,5.77852174 0.293947368,6.17895652 0.531578947,6.50217391 C0.773157895,6.82408696 1.04552632,7.08391304 1.31894737,7.29782609 C1.86578947,7.72904348 2.40736842,7.98991304 2.85263158,8.18556522 C3.28026316,8.37182609 3.63289474,8.48191304 3.87947368,8.55834783 L3.87947368,11.3830435 C3.87947368,11.5786957 4.04078947,11.7388696 4.23815789,11.7388696 C4.265,11.7388696 4.29263158,11.7336522 4.31736842,11.7245217 L7.66236842,10.4191304 C7.83710526,10.3946087 7.97184211,10.245913 7.97184211,10.0666957 L7.97184211,7.68208696 C7.97184211,7.50469565 7.84026316,7.35704348 7.66868421,7.33043478 L4.32657895,5.85078261 C4.29894737,5.83878261 4.26921053,5.83252174 4.23815789,5.83252174 C4.04078947,5.83252174 3.87947368,5.9913913 3.87947368,6.18808696 L3.87947368,8.49626087 C3.64605263,8.3913913 3.32342105,8.23852174 2.93578947,8.02252174 C2.72710526,7.90513043 2.50105263,7.76765217 2.26657895,7.60356522 C2.03342105,7.43947826 1.78657895,7.25504348 1.55131579,7.032 C1.31473684,6.81078261 1.08868421,6.552 0.904736842,6.25434783 C0.723684211,5.95695652 0.586052632,5.61756522 0.561315789,5.25782609 C0.559210526,5.21191304 0.553947368,5.16704348 0.556052632,5.12217391 L0.557105263,5.05408696 L0.557105263,5.04782609 L0.558157895,5.03269565 L0.561315789,4.99278261 C0.566315789,4.94086957 0.570526316,4.88895652 0.575789474,4.836 C0.581842105,4.788 0.593157895,4.75043478 0.601315789,4.70765217 L0.614736842,4.64426087 L0.635263158,4.57721739 C0.649736842,4.53234783 0.663947368,4.48747826 0.678421053,4.4426087 C0.718421053,4.35495652 0.748421053,4.26417391 0.799736842,4.1786087 C0.888157895,4.00434783 1.01157895,3.84026087 1.14210526,3.67930435 C1.21394737,3.60286957 1.27868421,3.52147826 1.36,3.44791304 C1.39789474,3.4113913 1.43710526,3.37356522 1.47605263,3.336 C1.51736842,3.30130435 1.55947368,3.26556522 1.60052632,3.23008696 C1.76815789,3.0873913 1.95210526,2.95695652 2.14236842,2.82834783 C2.24105263,2.76834783 2.33657895,2.70521739 2.43842105,2.64704348 C2.54105263,2.592 2.64078947,2.52991304 2.74868421,2.478 C3.17131579,2.26095652 3.62263158,2.06817391 4.09526316,1.90513043 C4.56710526,1.74208696 5.05973684,1.60147826 5.56447368,1.4853913 C6.06894737,1.36930435 6.58710526,1.2753913 7.11236842,1.20313043 C7.63763158,1.12982609 8.17131579,1.08391304 8.70894737,1.05026087 C9.24657895,1.01973913 9.78315789,1.00747826 10.3289474,1.02078261 C11.4031579,1.04008696 12.4865789,1.13895652 13.5268421,1.3293913 C14.0481579,1.4253913 14.5589474,1.54252174 15.0555263,1.68313043 C15.5521053,1.82478261 16.0331579,1.99278261 16.4894737,2.1866087 C16.9468421,2.38121739 17.3786842,2.60634783 17.7692105,2.86304348 C18.1578947,3.12182609 18.5073684,3.41530435 18.7757895,3.74452174 C18.9113158,3.9086087 19.0202632,4.08391304 19.1118421,4.26234783 C19.1942105,4.44365217 19.2568421,4.62808696 19.2865789,4.81565217 C19.2968421,4.86234783 19.2957895,4.90930435 19.3021053,4.95626087 L19.3092105,5.02643478 L19.3102632,5.03556522 C19.3102632,5.01730435 19.3102632,5.0366087 19.3102632,5.03478261 L19.3102632,5.09582609 L19.3092105,5.17721739 L19.305,5.24243478 L19.3,5.3066087 L19.2897368,5.376 C19.2628947,5.5593913 19.2073684,5.73782609 19.1344737,5.90791304 C18.9863158,6.24730435 18.7623684,6.54782609 18.5165789,6.8066087 C18.2731579,7.06852174 18.0036842,7.28869565 17.7384211,7.48043478 C17.205,7.86130435 16.6878947,8.13156522 16.2552632,8.33530435 C16.1215789,8.39634783 15.9981579,8.4513913 15.8810526,8.50226087 L15.8810526,6.18808696 C15.8810526,5.9913913 15.7205263,5.83252174 15.5221053,5.83252174 C15.4923684,5.83252174 15.4626316,5.83878261 15.4347368,5.85078261 L12.0928947,7.33147826 C11.9213158,7.35808696 11.7897368,7.50469565 11.7897368,7.68313043 L11.7897368,10.0666957 C11.7897368,10.245913 11.9242105,10.3956522 12.0992105,10.4191304 L15.4442105,11.7245217 C15.4686842,11.7346957 15.4955263,11.7388696 15.5221053,11.7388696 C15.7205263,11.7388696 15.8821053,11.5797391 15.8821053,11.3830435 L15.8821053,8.64704348 C16.0186842,8.6073913 16.1657895,8.56043478 16.325,8.5053913 C16.7844737,8.34547826 17.3426316,8.13052174 17.9357895,7.77573913 C18.2307895,7.5986087 18.5381579,7.39069565 18.8331579,7.12565217 C19.1273684,6.86373913 19.4089474,6.54078261 19.6226316,6.13930435 C19.8344737,5.73991304 19.9568421,5.24973913 19.9073684,4.74130435 L19.9073684,4.74130435 Z" id="Fill-3" fill="#FFFFFF" sketch:type="MSShapeGroup" mask="url(#mask-2)"></path>
            </g>
        </g>
    </g>
</svg>