<?xml version="1.0" encoding="UTF-8" standalone="no"?>
<svg width="274px" height="38px" viewBox="0 0 274 38" version="1.1" xmlns="http://www.w3.org/2000/svg" xmlns:xlink="http://www.w3.org/1999/xlink" xmlns:sketch="http://www.bohemiancoding.com/sketch/ns">
    <!-- Generator: Sketch 3.2.2 (9983) - http://www.bohemiancoding.com/sketch -->
    <title>facebook button</title>
    <desc>Created with Sketch.</desc>
    <defs>
        <path id="path-1" d="M0,0 L20,0 L20,19.9833333 L0,19.9833333 L0,0 Z"></path>
    </defs>
    <g id="Page-1" stroke="none" stroke-width="1" fill="none" fill-rule="evenodd" sketch:type="MSPage">
        <g id="facebook-button" sketch:type="MSArtboardGroup">
            <g id="facebook29" sketch:type="MSLayerGroup" transform="translate(50.000000, 9.000000)">
                <mask id="mask-2" sketch:name="Clip 2" fill="white">
                    <use xlink:href="#path-1"></use>
                </mask>
                <g id="Clip-2"></g>
                <path d="M20,3.33333333 C20,1.58194444 18.4191667,0 16.6666667,0 L3.33333333,0 C1.58083333,0 0,1.58194444 0,3.33333333 L0,16.6666667 C0,18.4180556 1.58083333,20 3.33333333,20 L10,20 L10,12.4447222 L7.55527778,12.4447222 L7.55527778,9.11138889 L10,9.11138889 L10,7.8125 C10,5.57277778 11.6819444,3.55583333 13.75,3.55583333 L16.4441667,3.55583333 L16.4441667,6.88916667 L13.75,6.88916667 C13.455,6.88916667 13.1108333,7.24722222 13.1108333,7.78333333 L13.1108333,9.11138889 L16.4441667,9.11138889 L16.4441667,12.4447222 L13.1108333,12.4447222 L13.1108333,20 L16.6666667,20 C18.4191667,20 20,18.4180556 20,16.6666667 L20,3.33333333 Z" id="Fill-1" fill="#FFFFFF" sketch:type="MSShapeGroup" mask="url(#mask-2)"></path>
            </g>
            <text id="SIGN-IN-WITH-FACEBOO" sketch:type="MSTextLayer" font-family="Lato" font-size="10" font-weight="686" letter-spacing="0.833333492" fill="#FFFFFF">
                <tspan x="81" y="22">SIGN IN WITH FACEBOOK</tspan>
            </text>
        </g>
    </g>
</svg>