<?xml version="1.0" encoding="UTF-8" standalone="no"?>
<svg width="65px" height="44px" viewBox="0 0 65 44" version="1.1" xmlns="http://www.w3.org/2000/svg" xmlns:xlink="http://www.w3.org/1999/xlink" xmlns:sketch="http://www.bohemiancoding.com/sketch/ns">
    <!-- Generator: Sketch 3.2.2 (9983) - http://www.bohemiancoding.com/sketch -->
    <title>favourite</title>
    <desc>Created with Sketch.</desc>
    <defs>
        <path id="path-1" d="M0.00394736842,0.0504269663 L20,0.0504269663 L20,17.9830112 L0.00394736842,17.9830112 L0.00394736842,0.0504269663 Z"></path>
    </defs>
    <g id="Page-1" stroke="none" stroke-width="1" fill="none" fill-rule="evenodd" sketch:type="MSPage">
        <g id="favourite" sketch:type="MSArtboardGroup">
            <g id="heart296" sketch:type="MSLayerGroup" transform="translate(22.000000, 13.000000)">
                <g id="Page-1">
                    <mask id="mask-2" sketch:name="Clip 2" fill="white">
                        <use xlink:href="#path-1"></use>
                    </mask>
                    <g id="Clip-2"></g>
                    <path d="M14.4061184,0.0504269663 C12.9258553,0.0504269663 11.5347368,0.64058427 10.4877632,1.71289888 L9.97197368,2.2414382 L9.45644737,1.71289888 C8.41,0.64058427 7.01815789,0.0504269663 5.53842105,0.0504269663 C4.05842105,0.0504269663 2.66677632,0.64058427 1.62032895,1.71289888 C-0.540197368,3.92710112 -0.540197368,7.52932584 1.62032895,9.74278652 L9.36190789,17.6756629 C9.48861842,17.8057753 9.64611842,17.8855955 9.81059211,17.9161348 C9.86585526,17.9274607 9.92138158,17.9327191 9.97710526,17.9327191 C10.1960526,17.9327191 10.4155263,17.8468315 10.5823684,17.6756629 L18.3238816,9.74278652 C20.4844079,7.52932584 20.4844079,3.92710112 18.3236842,1.71289888 C17.2771711,0.64058427 15.8861184,0.0504269663 14.4061184,0.0504269663 Z M9.97197368,15.8204494 L2.83072368,8.50240449 C1.33763158,6.97267416 1.33763158,4.48382022 2.83072368,2.9532809 C3.55394737,2.21217978 4.51585526,1.80478652 5.53842105,1.80478652 C6.56098684,1.80478652 7.52263158,2.21217978 8.24552632,2.9532809 L9.36677632,4.1027191 C9.68828947,4.43164045 10.25625,4.43164045 10.5774342,4.1027191 L11.6984211,2.9532809 C12.4213816,2.21217978 13.3830263,1.80478652 14.4061184,1.80478652 C15.4289474,1.80478652 16.3903289,2.21217978 17.1134868,2.9532809 C18.6065789,4.48382022 18.6065789,6.97267416 17.1134868,8.50240449 L9.97197368,15.8204494 Z" id="Fill-1" fill="#FFFFFF" sketch:type="MSShapeGroup" mask="url(#mask-2)"></path>
                </g>
            </g>
        </g>
    </g>
</svg>