<?xml version="1.0" encoding="UTF-8" standalone="no"?>
<svg width="20px" height="20px" viewBox="0 0 20 20" version="1.1" xmlns="http://www.w3.org/2000/svg" xmlns:xlink="http://www.w3.org/1999/xlink" xmlns:sketch="http://www.bohemiancoding.com/sketch/ns">
    <!-- Generator: Sketch 3.2.2 (9983) - http://www.bohemiancoding.com/sketch -->
    <title>icons splitscreen</title>
    <desc>Created with Sketch.</desc>
    <defs>
        <path id="path-1" d="M0.00289156627,0.00982278481 L16,0.00982278481 L16,19.9591899 L0.00289156627,19.9591899 L0.00289156627,0.00982278481 Z"></path>
    </defs>
    <g id="Page-1" stroke="none" stroke-width="1" fill="none" fill-rule="evenodd" sketch:type="MSPage">
        <g id="icons-splitscreen" sketch:type="MSArtboardGroup">
            <g id="idea19" sketch:type="MSLayerGroup" transform="translate(2.000000, 0.000000)">
                <mask id="mask-2" sketch:name="Clip 2" fill="white">
                    <use xlink:href="#path-1"></use>
                </mask>
                <g id="Clip-2"></g>
                <path d="M7.09956627,6.54111392 C7.0099759,6.54111392 6.91922892,6.54643038 6.82775904,6.55711392 C5.75773494,6.68232911 4.88742169,7.58774684 4.7586506,8.71078481 C4.65850602,9.57848101 4.98568675,10.4192405 5.6340241,10.9604051 C5.70987952,11.0241013 5.75450602,11.1206076 5.75450602,11.222481 L5.75450602,11.872557 C5.75450602,12.3021772 6.08679518,12.6518481 6.49624096,12.6518481 L7.70424096,12.6518481 C8.11349398,12.6518481 8.44578313,12.3021772 8.44578313,11.872557 L8.44578313,11.222481 C8.44578313,11.1206076 8.49060241,11.0241013 8.56645783,10.9608101 C9.13363855,10.4861266 9.45971084,9.77903797 9.45971084,9.02050633 C9.45971084,7.65362025 8.40096386,6.54111392 7.09956627,6.54111392 L7.09956627,6.54111392 Z" id="Fill-1" fill="#FFFFFF" sketch:type="MSShapeGroup" mask="url(#mask-2)"></path>
                <path d="M15.9343133,11.8794937 C15.5461205,9.5964557 14.5986506,4.0084557 13.9798554,3.1676962 C12.8799036,1.29346835 10.6592771,0.00982278481 8.09431325,0.00982278481 C4.43580723,0.00982278481 0.336240964,0.716151899 0.0376385542,6.37513924 C-0.254698795,11.9176709 1.21706024,13.1033924 2.26221687,14.1314937 C2.67151807,14.5341772 2.90419277,15.0964557 2.90419277,15.6856709 L2.90419277,19.4406076 C2.90419277,19.7218734 3.1206747,19.9493165 3.38838554,19.9493165 L9.28183133,19.9493165 C9.5493012,19.9493165 9.76583133,19.7218734 9.76583133,19.4406076 L9.76583133,18.8790886 C9.76583133,18.5636456 9.8853494,18.2608101 10.0986506,18.0383291 C10.3121446,17.815038 10.6007229,17.6913924 10.9011566,17.6926076 C11.7353253,17.6971646 12.7430361,17.6991392 12.8469398,17.6850633 C14.4792771,17.465519 14.0259759,15.5654177 14.4066506,12.8454684 L15.3093012,12.8454684 C15.5312289,12.8454684 15.7388916,12.7295696 15.8646265,12.536557 C15.9898313,12.3432911 15.9734458,12.109519 15.9343133,11.8794937 L15.9343133,11.8794937 Z M6.78163855,3.04703797 C6.78163855,2.9364557 6.86689157,2.84688608 6.97214458,2.84688608 L7.22814458,2.84688608 C7.33339759,2.84688608 7.4186988,2.9364557 7.4186988,3.04703797 L7.4186988,4.15265823 C7.4186988,4.26318987 7.33339759,4.35281013 7.22814458,4.35281013 L6.97214458,4.35281013 C6.86689157,4.35281013 6.78163855,4.26318987 6.78163855,4.15265823 L6.78163855,3.04703797 Z M3.81590361,4.15797468 C3.85146988,4.12040506 3.90004819,4.09924051 3.95050602,4.09924051 C4.00110843,4.09924051 4.04949398,4.12040506 4.0853012,4.15797468 L4.64212048,4.74344304 C4.71648193,4.82156962 4.71648193,4.94835443 4.64212048,5.02648101 L4.46120482,5.21650633 C4.42544578,5.25412658 4.37686747,5.27529114 4.32640964,5.27529114 C4.276,5.27529114 4.22742169,5.25412658 4.19166265,5.21650633 L3.63479518,4.63108861 C3.56043373,4.55275949 3.56043373,4.42617722 3.63479518,4.34805063 L3.81590361,4.15797468 Z M9.08284337,11.3785316 L9.08284337,11.8724051 C9.08284337,12.5106329 8.68578313,13.047443 8.13836145,13.2402532 L8.13836145,13.7948354 C8.13836145,14.104557 7.90004819,14.3559494 7.60486747,14.3559494 L6.59561446,14.3559494 C6.30009639,14.3559494 6.06192771,14.104557 6.06192771,13.7948354 L6.06192771,13.2402532 C5.51450602,13.047443 5.11763855,12.5106329 5.11763855,11.8724051 L5.11763855,11.3785316 C4.37498795,10.6906329 4.0060241,9.67539241 4.12592771,8.63027848 C4.29026506,7.20288608 5.39628916,6.05098734 6.7573494,5.89174684 C8.56703614,5.68131646 10.0967711,7.16607595 10.0967711,9.0203038 C10.0967711,9.92916456 9.72910843,10.7796456 9.08284337,11.3785316 L9.08284337,11.3785316 Z M10.0088675,5.15048101 C9.97306024,5.18805063 9.92472289,5.20921519 9.87407229,5.20921519 C9.82361446,5.20921519 9.77522892,5.18805063 9.73946988,5.15048101 L9.55836145,4.96040506 C9.484,4.88227848 9.484,4.75549367 9.55836145,4.67736709 L10.1152289,4.09189873 C10.150988,4.05432911 10.1993735,4.03336709 10.2498313,4.03336709 C10.3004337,4.03336709 10.3488193,4.05432911 10.3845783,4.09189873 L10.5656867,4.28217722 C10.6398554,4.3603038 10.6400482,4.48688608 10.5656867,4.56501266 L10.0088675,5.15048101 Z" id="Fill-3" fill="#FFFFFF" sketch:type="MSShapeGroup" mask="url(#mask-2)"></path>
            </g>
        </g>
    </g>
</svg>