<?xml version="1.0" encoding="UTF-8" standalone="no"?>
<svg width="20px" height="20px" viewBox="0 0 20 20" version="1.1" xmlns="http://www.w3.org/2000/svg" xmlns:xlink="http://www.w3.org/1999/xlink" xmlns:sketch="http://www.bohemiancoding.com/sketch/ns">
    <!-- Generator: Sketch 3.2.2 (9983) - http://www.bohemiancoding.com/sketch -->
    <title>icons splitscreen</title>
    <desc>Created with Sketch.</desc>
    <defs>
        <path id="path-1" d="M0.0245454545,0.248627451 L18,0.248627451 L18,19.8564706 L0.0245454545,19.8564706 L0.0245454545,0.248627451 Z"></path>
    </defs>
    <g id="Page-1" stroke="none" stroke-width="1" fill="none" fill-rule="evenodd" sketch:type="MSPage">
        <g id="icons-splitscreen" sketch:type="MSArtboardGroup">
            <g id="tree101" sketch:type="MSLayerGroup" transform="translate(9.500000, 10.000000) scale(-1, 1) translate(-9.500000, -10.000000) ">
                <mask id="mask-2" sketch:name="Clip 2" fill="white">
                    <use xlink:href="#path-1"></use>
                </mask>
                <g id="Clip-2"></g>
                <path d="M17.1658636,5.97960784 C17.1658636,4.51058824 16.0024091,3.30313725 14.5116818,3.15490196 C14.0927727,2.07333333 13.0095,1.29960784 11.7343636,1.29960784 C11.1763636,1.29960784 10.6572273,1.44980392 10.2113182,1.70705882 C9.70486364,0.836862745 8.73613636,0.248627451 7.62259091,0.248627451 C6.14740909,0.248627451 4.92668182,1.28431373 4.70127273,2.63686275 C4.57977273,2.62313725 4.45827273,2.61411765 4.33390909,2.61411765 C2.69754545,2.61411765 1.36963636,3.8854902 1.36963636,5.45411765 C1.36963636,5.53215686 1.37577273,5.60705882 1.38231818,5.68235294 C0.553090909,6.18627451 0,7.07176471 0,8.0827451 C0,8.97568627 0.431590909,9.77254902 1.10413636,10.2933333 C1.10086364,10.3439216 1.09636364,10.3941176 1.09636364,10.4462745 C1.09636364,12.014902 2.42263636,13.2878431 4.06063636,13.2878431 C4.55113636,13.2878431 5.013,13.1717647 5.41881818,12.9694118 C5.98459091,13.3584314 6.79295455,13.8439216 7.18445455,13.747451 C7.18445455,13.747451 7.33009091,15.9105882 7.29818182,16.4588235 C7.23886364,17.5035294 6.91159091,18.6662745 6.68127273,19.6086275 L10.2448636,19.6086275 C10.2448636,19.6086275 9.71918182,17.5098039 9.69668182,16.8098039 C9.67295455,16.1082353 9.92536364,14.8184314 9.92536364,14.8184314 L11.1604091,13.5929412 C11.6365909,13.9054902 12.2121818,14.0815686 12.8319545,14.0815686 C14.3627727,14.0815686 15.6235909,12.9647059 15.7786364,11.5341176 C16.9069091,11.1341176 17.7140455,10.092549 17.7140455,8.87019608 C17.7140455,8.14862745 17.4309545,7.49294118 16.9690909,6.99058824 C17.0938636,6.67647059 17.1658636,6.33647059 17.1658636,5.97960784 L17.1658636,5.97960784 Z M6.10445455,12.5007843 C6.34254545,12.2831373 6.54054545,12.0286275 6.69395455,11.7470588 L7.27568182,12.9156863 C7.27404545,12.9156863 6.95781818,13.0490196 6.10445455,12.5007843 L6.10445455,12.5007843 Z M8.27918182,13.2219608 C7.97890909,13.2741176 7.46590909,12.3858824 7.10140909,11.6627451 C7.506,11.8603922 7.96131818,11.9737255 8.44568182,11.9737255 C8.57004545,11.9737255 8.69154545,11.9643137 8.81304545,11.9505882 C8.71854545,12.5282353 8.55409091,13.1745098 8.27918182,13.2219608 L8.27918182,13.2219608 Z M9.55922727,13.7905882 C8.86254545,13.9756863 9.27981818,12.5941176 9.47945455,11.7929412 C9.62304545,11.7407843 9.76377273,11.6811765 9.89631818,11.6090196 C9.9765,12.192549 10.2415909,12.7196078 10.6330909,13.134902 C10.2927273,13.4243137 9.90286364,13.7 9.55922727,13.7905882 L9.55922727,13.7905882 Z" id="Fill-1" fill="#FFFFFF" sketch:type="MSShapeGroup" mask="url(#mask-2)"></path>
            </g>
        </g>
    </g>
</svg>