<?xml version="1.0" encoding="UTF-8" standalone="no"?>
<svg width="20px" height="20px" viewBox="0 0 20 20" version="1.1" xmlns="http://www.w3.org/2000/svg" xmlns:xlink="http://www.w3.org/1999/xlink" xmlns:sketch="http://www.bohemiancoding.com/sketch/ns">
    <!-- Generator: Sketch 3.2.2 (9983) - http://www.bohemiancoding.com/sketch -->
    <title>icons splitscreen</title>
    <desc>Created with Sketch.</desc>
    <defs>
        <path id="path-1" d="M0.048,0.0507692308 L16,0.0507692308 L16,19.2815385 L0.048,19.2815385 L0.048,0.0507692308 Z"></path>
    </defs>
    <g id="Page-1" stroke="none" stroke-width="1" fill="none" fill-rule="evenodd" sketch:type="MSPage">
        <g id="icons-splitscreen" sketch:type="MSArtboardGroup">
            <g id="medical51" sketch:type="MSLayerGroup" transform="translate(2.000000, 0.000000)">
                <g id="Group-4">
                    <mask id="mask-2" sketch:name="Clip 2" fill="white">
                        <use xlink:href="#path-1"></use>
                    </mask>
                    <g id="Clip-2"></g>
                    <path d="M5.872,8.52692308 L4.1688,8.52692308 C3.9656,8.52692308 3.7688,8.52692308 3.584,8.54538462 C3.7784,9.64461538 4.6376,12.4784615 8.344,12.5207692 C8.4032,12.5084615 8.4656,12.5084615 8.5248,12.5261538 C9.1408,12.5230769 12.2408,12.2923077 12.9936,8.65615385 C12.616,8.56923077 12.1904,8.52692308 11.7064,8.52692308 L9.916,8.52692308 C11.3624,7.80307692 12.3528,6.36384615 12.3528,4.69615385 C12.3528,4.55769231 12.3472,4.41615385 12.3312,4.28461538 L9.8128,4.28461538 C10.1816,3.91461538 10.4344,3.43692308 10.5128,2.90538462 L11.9504,2.90538462 C11.5128,1.98538462 10.7504,1.24 9.8,0.810769231 C9.3248,0.342307692 8.6656,0.0507692308 7.9344,0.0507692308 C7.2376,0.0507692308 6.6032,0.314615385 6.1376,0.747692308 C5.1184,1.16538462 4.2968,1.94076923 3.8376,2.90538462 L5.3592,2.90538462 C5.4376,3.43692308 5.6872,3.91461538 6.0592,4.28461538 L3.456,4.28461538 C3.444,4.41615385 3.4344,4.56076923 3.4344,4.69615385 C3.4344,6.36384615 4.4248,7.80307692 5.872,8.52692308 L5.872,8.52692308 Z M7.9344,0.747692308 C8.9688,0.747692308 9.8096,1.55923077 9.8096,2.55384615 C9.8096,3.54769231 8.9688,4.35615385 7.9344,4.35615385 C6.9,4.35615385 6.0592,3.54769231 6.0592,2.55384615 C6.0592,1.55615385 6.9,0.747692308 7.9344,0.747692308 L7.9344,0.747692308 Z" id="Fill-1" fill="#FFFFFF" sketch:type="MSShapeGroup" mask="url(#mask-2)"></path>
                    <path d="M15.844,12.46 C15.844,12.46 15.984,9.85538462 13.7032,8.87538462 C12.8216,13.1276923 8.9816,13.3830769 8.4656,13.3884615 C8.4528,13.4307692 8.444,13.4761538 8.444,13.5269231 C8.4376,13.8246154 8.7064,14.2092308 9.2,14.6053846 C10.084,15.3115385 10.256,16.3338462 9.644,17.2076923 C9.1688,17.89 8.272,18.3615385 7.1752,18.3615385 C6.6472,18.3615385 6.0752,18.2538462 5.4784,18.0038462 C5.2968,18.1961538 5.0312,18.32 4.7408,18.32 C4.1904,18.32 3.744,17.89 3.744,17.3615385 C3.744,16.8323077 4.1904,16.4023077 4.7408,16.4023077 C5.284,16.4023077 5.728,16.8261538 5.7344,17.3492308 C7.2184,17.98 8.5064,17.5861538 9.044,16.8169231 C9.444,16.2430769 9.3312,15.6184615 8.7376,15.1438462 C8.0376,14.5846154 7.6968,14.0284615 7.716,13.4907692 C7.7184,13.4461538 7.7248,13.4007692 7.7312,13.3584615 C3.9592,13.0161538 3.0624,9.82538462 2.8592,8.65 C-0.0184,9.32 0.0064,12.19 0,12.46 L0.0032,19.23 L15.8592,19.23 L15.844,12.46 Z" id="Fill-3" fill="#FFFFFF" sketch:type="MSShapeGroup" mask="url(#mask-2)"></path>
                </g>
                <path d="M8.8,2.55384615 C8.8,3.01307692 8.4128,3.38615385 7.9344,3.38615385 C7.456,3.38615385 7.0688,3.01307692 7.0688,2.55384615 C7.0688,2.09076923 7.456,1.71846154 7.9344,1.71846154 C8.4128,1.71846154 8.8,2.09076923 8.8,2.55384615 L8.8,2.55384615 Z" id="Fill-5" fill="#FFFFFF" sketch:type="MSShapeGroup"></path>
            </g>
        </g>
    </g>
</svg>