<?xml version="1.0" encoding="UTF-8" standalone="no"?>
<svg width="20px" height="20px" viewBox="0 0 20 20" version="1.1" xmlns="http://www.w3.org/2000/svg" xmlns:xlink="http://www.w3.org/1999/xlink" xmlns:sketch="http://www.bohemiancoding.com/sketch/ns">
    <!-- Generator: Sketch 3.2.2 (9983) - http://www.bohemiancoding.com/sketch -->
    <title>icons splitscreen</title>
    <desc>Created with Sketch.</desc>
    <defs>
        <path id="path-1" d="M0.0436363636,0.733333333 L16,0.733333333 L16,19.9925926 L0.0436363636,19.9925926 L0.0436363636,0.733333333 Z"></path>
    </defs>
    <g id="Page-1" stroke="none" stroke-width="1" fill="none" fill-rule="evenodd" sketch:type="MSPage">
        <g id="icons-splitscreen" sketch:type="MSArtboardGroup">
            <g id="wellness" sketch:type="MSLayerGroup" transform="translate(2.000000, 0.000000)">
                <path d="M7.67636364,4.01481481 C7.67636364,2.99037037 7.87781818,2.16 7.87781818,2.16 C7.87781818,2.16 8.07927273,2.99037037 8.07927273,4.01481481 C8.07927273,4.23185185 8.06836364,4.43407407 8.05381818,4.62814815 C8.32945455,4.30444444 8.83490909,3.60074074 8.83490909,2.77925926 C8.83490909,1.64814815 7.87781818,0.733333333 7.87781818,0.733333333 C7.87781818,0.733333333 6.91781818,1.64814815 6.91781818,2.77925926 C6.91781818,3.60074074 7.42327273,4.30444444 7.69890909,4.62814815 C7.68436364,4.43407407 7.67636364,4.23185185 7.67636364,4.01481481 L7.67636364,4.01481481 Z" id="Fill-1" fill="#FFFFFF" sketch:type="MSShapeGroup"></path>
                <path d="M8.07927273,15.9792593 C8.07927273,17.0037037 7.87781818,17.8311111 7.87781818,17.8311111 C7.87781818,17.8311111 7.67636364,17.0037037 7.67636364,15.9792593 C7.67636364,15.7622222 7.68436364,15.557037 7.69890909,15.362963 C7.42327273,15.6903704 6.91781818,16.3933333 6.91781818,17.2148148 C6.91781818,18.3437037 7.87781818,19.2577778 7.87781818,19.2577778 C7.87781818,19.2577778 8.83490909,18.3437037 8.83490909,17.2148148 C8.83490909,16.3933333 8.32945455,15.6903704 8.05381818,15.362963 C8.06836364,15.557037 8.07927273,15.7622222 8.07927273,15.9792593 L8.07927273,15.9792593 Z" id="Fill-2" fill="#FFFFFF" sketch:type="MSShapeGroup"></path>
                <path d="M5.14472727,5.4037037 C5.07636364,5.30222222 5.00872727,5.19555556 4.94036364,5.07407407 C4.62181818,4.51259259 4.47418182,3.99481481 4.47418182,3.99481481 C4.47418182,3.99481481 4.84363636,4.38518519 5.16218182,4.9437037 C5.22763636,5.06222222 5.28727273,5.17777778 5.33818182,5.29111111 C5.38909091,5.02148148 5.44872727,4.47185185 5.19345455,4.0237037 C4.84072727,3.40444444 4.03127273,3.21037037 4.03127273,3.21037037 C4.03127273,3.21037037 3.78981818,4.02074074 4.13890909,4.64 C4.39490909,5.09407407 4.89236364,5.31703704 5.14472727,5.4037037 L5.14472727,5.4037037 Z" id="Fill-3" fill="#FFFFFF" sketch:type="MSShapeGroup"></path>
                <path d="M10.608,14.5881481 C10.6763636,14.6888889 10.744,14.7992593 10.8123636,14.9177778 C11.1309091,15.4792593 11.2785455,16 11.2785455,16 C11.2785455,16 10.9090909,15.6088889 10.5905455,15.0481481 C10.5258182,14.9288889 10.4661818,14.8133333 10.4145455,14.7037037 C10.3636364,14.9696296 10.3069091,15.5192593 10.5621818,15.9681481 C10.912,16.5903704 11.7243636,16.7807407 11.7243636,16.7807407 C11.7243636,16.7807407 11.9658182,15.9711111 11.6138182,15.3518519 C11.3578182,14.9 10.8610909,14.6777778 10.608,14.5881481 L10.608,14.5881481 Z" id="Fill-4" fill="#FFFFFF" sketch:type="MSShapeGroup"></path>
                <path d="M2.60509091,9.88296296 C2.40363636,9.7037037 1.96581818,9.37925926 1.45454545,9.3762963 C0.752727273,9.3762963 0.181818182,9.99555556 0.181818182,9.99555556 C0.181818182,9.99555556 0.752727273,10.6148148 1.45454545,10.6148148 C1.96581818,10.6148148 2.40363636,10.2881481 2.60509091,10.1118519 C2.48581818,10.12 2.35781818,10.1259259 2.22472727,10.1259259 C1.58545455,10.1259259 1.07127273,9.99555556 1.07127273,9.99555556 C1.07127273,9.99555556 1.58836364,9.86592593 2.22472727,9.86592593 C2.35781818,9.86592593 2.48581818,9.87111111 2.60509091,9.88296296 L2.60509091,9.88296296 Z" id="Fill-5" fill="#FFFFFF" sketch:type="MSShapeGroup"></path>
                <path d="M13.1476364,10.1118519 C13.3490909,10.2881481 13.7869091,10.6148148 14.2981818,10.6148148 C15,10.6148148 15.568,9.99555556 15.568,9.99555556 C15.568,9.99555556 15,9.37925926 14.2981818,9.37925926 C13.7869091,9.37925926 13.3490909,9.7037037 13.1476364,9.88296296 C13.2669091,9.87111111 13.3949091,9.86592593 13.5287273,9.86592593 C14.1650909,9.86592593 14.6821818,9.99555556 14.6821818,9.99555556 C14.6821818,9.99555556 14.1650909,10.1288889 13.5287273,10.1259259 C13.3949091,10.1259259 13.2669091,10.12 13.1476364,10.1118519 L13.1476364,10.1118519 Z" id="Fill-6" fill="#FFFFFF" sketch:type="MSShapeGroup"></path>
                <path d="M5.16218182,15.0481481 C4.84363636,15.6088889 4.47418182,15.997037 4.47418182,15.997037 C4.47418182,15.997037 4.62181818,15.4792593 4.93745455,14.9148148 C5.00872727,14.7962963 5.07636364,14.6888889 5.14472727,14.5881481 C4.89236364,14.6777778 4.39490909,14.9 4.13890909,15.3488889 C3.78690909,15.9711111 4.02836364,16.7807407 4.02836364,16.7807407 C4.02836364,16.7807407 4.84072727,16.5874074 5.19054545,15.9681481 C5.44581818,15.5192593 5.38909091,14.9696296 5.33818182,14.7007407 C5.28727273,14.8133333 5.22763636,14.9288889 5.16218182,15.0481481 L5.16218182,15.0481481 Z" id="Fill-7" fill="#FFFFFF" sketch:type="MSShapeGroup"></path>
                <g id="Group-13">
                    <mask id="mask-2" sketch:name="Clip 9" fill="white">
                        <use xlink:href="#path-1"></use>
                    </mask>
                    <g id="Clip-9"></g>
                    <path d="M10.5905455,4.94666667 C10.9090909,4.38518519 11.2785455,3.99481481 11.2785455,3.99481481 C11.2785455,3.99481481 11.1338182,4.51555556 10.8123636,5.07703704 C10.7469091,5.19555556 10.6763636,5.30222222 10.608,5.4037037 C10.864,5.31703704 11.3578182,5.09407407 11.6138182,4.64296296 C11.9658182,4.0237037 11.7243636,3.21037037 11.7243636,3.21037037 C11.7243636,3.21037037 10.912,3.40444444 10.5621818,4.0237037 C10.3069091,4.47481481 10.3636364,5.02148148 10.4145455,5.29111111 C10.4661818,5.17777778 10.5258182,5.06222222 10.5905455,4.94666667 L10.5905455,4.94666667 Z" id="Fill-8" fill="#FFFFFF" sketch:type="MSShapeGroup" mask="url(#mask-2)"></path>
                    <path d="M2.21890909,5.54296296 C1.25818182,4.97851852 0,5.36592593 0,5.36592593 C0,5.36592593 0.298181818,6.66814815 1.25818182,7.23259259 C1.96,7.6437037 2.80945455,7.55111111 3.22472727,7.46962963 C3.05090909,7.38592593 2.872,7.29037037 2.68727273,7.18296296 C1.81818182,6.67111111 1.21309091,6.07777778 1.21309091,6.07777778 C1.21309091,6.07777778 2.01963636,6.31555556 2.88945455,6.82740741 C3.07418182,6.93407407 3.24436364,7.04740741 3.40072727,7.15703704 C3.264,6.74888889 2.91781818,5.95333333 2.21890909,5.54296296 L2.21890909,5.54296296 Z" id="Fill-10" fill="#FFFFFF" sketch:type="MSShapeGroup" mask="url(#mask-2)"></path>
                    <path d="M14.4945455,12.7592593 C13.7927273,12.3481481 12.9432727,12.4437037 12.5287273,12.5244444 C12.7018182,12.6088889 12.8807273,12.7014815 13.0654545,12.8111111 C13.9345455,13.322963 14.5396364,13.9133333 14.5396364,13.9133333 C14.5396364,13.9133333 13.7330909,13.6792593 12.864,13.1674074 C12.6792727,13.057037 12.5083636,12.9474074 12.352,12.837037 C12.4887273,13.2451852 12.8349091,14.0407407 13.5338182,14.4518519 C14.4945455,15.0162963 15.7527273,14.6281481 15.7527273,14.6281481 C15.7527273,14.6281481 15.4516364,13.322963 14.4945455,12.7592593 L14.4945455,12.7592593 Z" id="Fill-11" fill="#FFFFFF" sketch:type="MSShapeGroup" mask="url(#mask-2)"></path>
                    <path d="M1.21309091,13.9133333 C1.21309091,13.9133333 1.81818182,13.3207407 2.68727273,12.8081481 C2.872,12.7014815 3.05090909,12.6088889 3.22472727,12.5214815 C2.80945455,12.4407407 1.95709091,12.3481481 1.26109091,12.7592593 C0.298181818,13.322963 0,14.6281481 0,14.6281481 C0,14.6281481 1.25818182,15.0133333 2.21890909,14.4518519 C2.91781818,14.0377778 3.264,13.2422222 3.40072727,12.837037 C3.24436364,12.9444444 3.07418182,13.057037 2.89236364,13.1644444 C2.01963636,13.6762963 1.21309091,13.9133333 1.21309091,13.9133333 L1.21309091,13.9133333 Z" id="Fill-12" fill="#FFFFFF" sketch:type="MSShapeGroup" mask="url(#mask-2)"></path>
                </g>
                <path d="M14.5396364,6.07777778 C14.5396364,6.07777778 13.9345455,6.67111111 13.0654545,7.18296296 C12.8807273,7.29037037 12.7018182,7.38592593 12.5309091,7.46962963 C12.9432727,7.55111111 13.7956364,7.6437037 14.4916364,7.23259259 C15.4516364,6.66814815 15.7527273,5.36592593 15.7527273,5.36592593 C15.7527273,5.36592593 14.4945455,4.97851852 13.5338182,5.54296296 C12.8349091,5.95333333 12.4916364,6.74888889 12.352,7.15407407 C12.5083636,7.04740741 12.6792727,6.93407407 12.864,6.82740741 C13.7330909,6.31555556 14.5396364,6.07777778 14.5396364,6.07777778 L14.5396364,6.07777778 Z" id="Fill-14" fill="#FFFFFF" sketch:type="MSShapeGroup"></path>
                <path d="M7.87781818,9.55851852 C7.87781818,9.55851852 5.48,7.34518519 3.94909091,7.53925926 C6.89236364,9.11333333 7.87781818,14.9207407 7.87781818,14.9207407 C7.87781818,14.9207407 8.16509091,9.70074074 11.8036364,7.53925926 C9.86109091,7.17777778 7.87781818,9.55851852 7.87781818,9.55851852 L7.87781818,9.55851852 Z" id="Fill-15" fill="#FFFFFF" sketch:type="MSShapeGroup"></path>
                <path d="M8.86109091,7.50148148 C8.86109091,8.05703704 8.42036364,8.50592593 7.87781818,8.50592593 C7.33236364,8.50592593 6.89236364,8.05703704 6.89236364,7.50148148 C6.89236364,6.94888889 7.33236364,6.49777778 7.87781818,6.49777778 C8.42036364,6.49777778 8.86109091,6.94888889 8.86109091,7.50148148 L8.86109091,7.50148148 Z" id="Fill-16" fill="#FFFFFF" sketch:type="MSShapeGroup"></path>
            </g>
        </g>
    </g>
</svg>